<svg width="1440" height="1024" viewBox="0 0 1440 1024" fill="none" xmlns="http://www.w3.org/2000/svg">
<rect width="1440" height="1024" fill="#F8F7F5"/>
<path d="M6 7.5H107V7.5C107 63.2808 61.7808 108.5 6 108.5V108.5V7.5Z" fill="#6CD579"/>
<path d="M6 7.5H69.0582V7.5C69.0582 42.3261 40.8261 70.5582 6 70.5582V70.5582V7.5Z" fill="#2B3551"/>
<path d="M1177.84 228.242L1143.13 145.205V145.205C1188.99 126.035 1241.7 147.671 1260.87 193.531V193.531L1177.84 228.242Z" fill="#6CD579"/>
<path d="M1177.84 228.242L1156.17 176.399V176.399C1184.8 164.43 1217.71 177.939 1229.68 206.571V206.571L1177.84 228.242Z" fill="#D7E052"/>
<path d="M386.482 991.275H330.798C300.045 991.275 275.114 966.345 275.114 935.591V935.591C275.114 904.838 300.045 879.907 330.798 879.907V879.907C361.552 879.907 386.482 904.838 386.482 935.591V991.275Z" fill="#FF743D"/>
<path d="M386.482 991.275H354.939C337.518 991.275 323.395 977.153 323.395 959.732V959.732C323.395 942.311 337.518 928.188 354.939 928.188V928.188C372.36 928.188 386.482 942.311 386.482 959.732V991.275Z" fill="#FFC700"/>
<path d="M387.4 772.633L423.186 773.092C442.95 773.345 458.767 789.573 458.514 809.337V809.337C458.261 829.102 442.033 844.918 422.269 844.665V844.665C402.505 844.412 386.688 828.184 386.941 808.42L387.4 772.633Z" fill="#D3E152"/>
<path d="M387.4 772.633L407.672 772.893C418.868 773.037 427.828 782.229 427.684 793.425V793.425C427.541 804.621 418.348 813.581 407.152 813.437V813.437C395.956 813.294 386.996 804.101 387.14 792.905L387.4 772.633Z" fill="#FF743D"/>
<path d="M162.927 991.275V879.907V879.907C224.434 879.907 274.295 929.768 274.295 991.275V991.275H162.927Z" fill="#D3E152"/>
<path d="M147.368 752.98V864.348V864.348C85.8612 864.348 35.9999 814.487 35.9999 752.98V752.98H147.368Z" fill="#F6C90B"/>
<path d="M36 991.275V935.591C36 904.838 60.9306 879.907 91.6841 879.907V879.907C122.438 879.907 147.368 904.838 147.368 935.591V935.591C147.368 966.345 122.438 991.275 91.6841 991.275H36Z" fill="#FF743D"/>
<path d="M36 991.275V959.732C36 942.311 50.1226 928.188 67.5436 928.188V928.188C84.9646 928.188 99.0872 942.311 99.0872 959.732V959.732C99.0872 977.153 84.9647 991.275 67.5436 991.275H36Z" fill="#FFC700"/>
<circle cx="342.672" cy="850.018" r="19.2438" fill="#6CD579"/>
<circle cx="342.672" cy="791.877" r="19.2438" fill="#D3E152"/>
<path d="M171.935 820.948H255.17C284.275 820.948 307.87 844.542 307.87 873.647V873.647H224.634C195.529 873.647 171.935 850.053 171.935 820.948V820.948Z" fill="#2B3551"/>
<path d="M307.869 813.868H224.634C195.529 813.868 171.935 790.274 171.935 761.169V761.169H255.17C284.275 761.169 307.869 784.763 307.869 813.868V813.868Z" fill="#FDC802"/>
<path d="M37.6377 613.77H149.006V613.77C149.006 675.277 99.1447 725.138 37.6377 725.138V725.138V613.77Z" fill="#FF743D"/>
<path d="M37.6377 613.77H107.169V613.77C107.169 652.171 76.0389 683.301 37.6377 683.301V683.301V613.77Z" fill="#FFC700"/>
</svg>
