<svg width="20" height="21" viewBox="0 0 20 21" fill="none" xmlns="http://www.w3.org/2000/svg">
<path d="M5.83302 10.7448V14.0782C5.83302 14.2992 5.92082 14.5112 6.0771 14.6674C6.23338 14.8237 6.44534 14.9115 6.66636 14.9115H9.99969C10.1094 14.9121 10.2181 14.8911 10.3196 14.8497C10.4211 14.8082 10.5135 14.7471 10.5914 14.6698L16.6664 8.60318C17.1987 8.06361 17.4971 7.33614 17.4971 6.57818C17.4971 5.82022 17.1987 5.09275 16.6664 4.55318L16.1914 4.07818C15.6438 3.56131 14.9193 3.27338 14.1664 3.27338C13.4134 3.27338 12.6889 3.56131 12.1414 4.07818L6.07469 10.1532C5.99745 10.231 5.93635 10.3234 5.89488 10.4249C5.85341 10.5265 5.83239 10.6352 5.83302 10.7448ZM7.49969 11.0865L13.333 5.25318C13.5587 5.04107 13.8567 4.92298 14.1664 4.92298C14.476 4.92298 14.7741 5.04107 14.9997 5.25318L15.4664 5.71984C15.6862 5.94148 15.8096 6.24101 15.8096 6.55318C15.8096 6.86535 15.6862 7.16488 15.4664 7.38651L9.63302 13.2198H7.49969V11.0865Z" fill="#464255"/>
<path d="M16.6667 10.7447C16.4457 10.7447 16.2337 10.8325 16.0774 10.9888C15.9211 11.145 15.8333 11.357 15.8333 11.578V15.7447C15.8333 15.9657 15.7455 16.1777 15.5893 16.3339C15.433 16.4902 15.221 16.578 15 16.578H5C4.77899 16.578 4.56702 16.4902 4.41074 16.3339C4.25446 16.1777 4.16667 15.9657 4.16667 15.7447V5.74469C4.16667 5.52368 4.25446 5.31171 4.41074 5.15543C4.56702 4.99915 4.77899 4.91136 5 4.91136H9.16667C9.38768 4.91136 9.59964 4.82356 9.75592 4.66728C9.9122 4.511 10 4.29904 10 4.07802C10 3.85701 9.9122 3.64505 9.75592 3.48877C9.59964 3.33249 9.38768 3.24469 9.16667 3.24469H5C4.33696 3.24469 3.70107 3.50808 3.23223 3.97692C2.76339 4.44576 2.5 5.08165 2.5 5.74469V15.7447C2.5 16.4077 2.76339 17.0436 3.23223 17.5125C3.70107 17.9813 4.33696 18.2447 5 18.2447H15C15.663 18.2447 16.2989 17.9813 16.7678 17.5125C17.2366 17.0436 17.5 16.4077 17.5 15.7447V11.578C17.5 11.357 17.4122 11.145 17.2559 10.9888C17.0996 10.8325 16.8877 10.7447 16.6667 10.7447Z" fill="#464255"/>
</svg>
