<svg width="16" height="18" viewBox="0 0 16 18" fill="none" xmlns="http://www.w3.org/2000/svg">
<path d="M0.5 6.4112V16.4112C0.5 16.6322 0.587797 16.8442 0.744078 17.0005C0.900358 17.1567 1.11232 17.2445 1.33333 17.2445H5.5C5.72101 17.2445 5.93297 17.1567 6.08926 17.0005C6.24554 16.8442 6.33333 16.6322 6.33333 16.4112V10.5779H9.66667V16.4112C9.66667 16.6322 9.75446 16.8442 9.91074 17.0005C10.067 17.1567 10.279 17.2445 10.5 17.2445H14.6667C14.8877 17.2445 15.0996 17.1567 15.2559 17.0005C15.4122 16.8442 15.5 16.6322 15.5 16.4112V6.4112C15.5 6.28183 15.4699 6.15424 15.412 6.03852C15.3542 5.92281 15.2702 5.82216 15.1667 5.74453L8.5 0.744533C8.35575 0.636348 8.18031 0.577866 8 0.577866C7.81969 0.577866 7.64425 0.636348 7.5 0.744533L0.833333 5.74453C0.729837 5.82216 0.645834 5.92281 0.587977 6.03852C0.530121 6.15424 0.5 6.28183 0.5 6.4112ZM2.16667 6.82787L8 2.45287L13.8333 6.82787V15.5779H11.3333V9.74453C11.3333 9.52352 11.2455 9.31156 11.0893 9.15528C10.933 8.999 10.721 8.9112 10.5 8.9112H5.5C5.27899 8.9112 5.06702 8.999 4.91074 9.15528C4.75446 9.31156 4.66667 9.52352 4.66667 9.74453V15.5779H2.16667V6.82787Z" fill="#464255"/>
</svg>
