<svg width="77" height="77" viewBox="0 0 77 77" fill="none" xmlns="http://www.w3.org/2000/svg">
<g filter="url(#filter0_d_1_602)">
<circle cx="38.5" cy="28.5" r="24.5" fill="white"/>
</g>
<path d="M31.0486 33.6667H30.8337C30.1894 33.6667 29.667 34.1885 29.667 34.8333C29.667 35.4782 30.1894 36 30.8337 36H31.0487C31.5319 37.3551 32.8147 38.3333 34.3337 38.3333C35.8526 38.3333 37.1355 37.3551 37.6187 36H40.382C40.8652 37.3551 42.1481 38.3333 43.667 38.3333C45.1926 38.3333 46.4796 37.3462 46.9577 35.9818C48.3498 35.8886 49.511 34.9149 49.8176 33.5345L51.2697 26.9982C51.4782 26.0617 51.2532 25.0944 50.6522 24.3459C50.0512 23.5962 49.1562 23.1667 48.1958 23.1667H46.6708C46.5538 22.7304 46.3433 22.3189 46.0453 21.9624C45.4455 21.2446 44.5648 20.8333 43.6294 20.8333H32.0003C31.356 20.8333 30.8337 21.3552 30.8337 22C30.8337 22.6449 31.356 23.1667 32.0003 23.1667H43.6294C43.9609 23.1667 44.1637 23.3501 44.2555 23.4595C44.3466 23.5689 44.4907 23.8001 44.4326 24.1248L43.1096 31.3897C41.8387 31.5952 40.8044 32.4819 40.382 33.6667H37.6187C37.1355 32.3116 35.8526 31.3333 34.3337 31.3333C32.8147 31.3333 31.5318 32.3116 31.0486 33.6667ZM48.8321 25.8053C48.9238 25.9193 49.0657 26.1597 48.9922 26.4924L47.5401 33.0287C47.4722 33.3336 47.241 33.5552 46.9518 33.6312C46.6688 32.8664 46.1205 32.2208 45.4053 31.8069L46.554 25.5H48.1958C48.5365 25.5 48.7404 25.6914 48.8321 25.8053ZM43.667 33.6667C43.741 33.6667 43.8157 33.6724 43.8658 33.6803C44.4264 33.7897 44.8337 34.2739 44.8337 34.8333C44.8337 35.4771 44.3101 36 43.667 36C43.0238 36 42.5003 35.4771 42.5003 34.8333C42.5003 34.1896 43.0238 33.6667 43.667 33.6667ZM34.3337 33.6667C34.9768 33.6667 35.5003 34.1896 35.5003 34.8333C35.5003 35.4771 34.9768 36 34.3337 36C33.6905 36 33.167 35.4771 33.167 34.8333C33.167 34.1896 33.6905 33.6667 34.3337 33.6667Z" fill="#2D9CDB"/>
<path d="M29.6667 27.8333H34.3333C34.9776 27.8333 35.5 27.3115 35.5 26.6667C35.5 26.0218 34.9776 25.5 34.3333 25.5H29.6667C29.0224 25.5 28.5 26.0218 28.5 26.6667C28.5 27.3115 29.0224 27.8333 29.6667 27.8333Z" fill="#2D9CDB"/>
<path d="M27.3337 31.3333H30.8337C31.4779 31.3333 32.0003 30.8115 32.0003 30.1667C32.0003 29.5218 31.4779 29 30.8337 29H27.3337C26.6894 29 26.167 29.5218 26.167 30.1667C26.167 30.8115 26.6894 31.3333 27.3337 31.3333Z" fill="#2D9CDB"/>
<path d="M28.4997 23.1667C29.144 23.1667 29.6663 22.6443 29.6663 22C29.6663 21.3557 29.144 20.8333 28.4997 20.8333C27.8553 20.8333 27.333 21.3557 27.333 22C27.333 22.6443 27.8553 23.1667 28.4997 23.1667Z" fill="#2D9CDB"/>
<path d="M27.3337 36C27.978 36 28.5003 35.4777 28.5003 34.8333C28.5003 34.189 27.978 33.6667 27.3337 33.6667C26.6893 33.6667 26.167 34.189 26.167 34.8333C26.167 35.4777 26.6893 36 27.3337 36Z" fill="#2D9CDB"/>
<defs>
<filter id="filter0_d_1_602" x="0" y="0" width="77" height="77" filterUnits="userSpaceOnUse" color-interpolation-filters="sRGB">
<feFlood flood-opacity="0" result="BackgroundImageFix"/>
<feColorMatrix in="SourceAlpha" type="matrix" values="0 0 0 0 0 0 0 0 0 0 0 0 0 0 0 0 0 0 127 0" result="hardAlpha"/>
<feOffset dy="10"/>
<feGaussianBlur stdDeviation="7"/>
<feColorMatrix type="matrix" values="0 0 0 0 0.341667 0 0 0 0 0.0614999 0 0 0 0 0 0 0 0 0.12 0"/>
<feBlend mode="normal" in2="BackgroundImageFix" result="effect1_dropShadow_1_602"/>
<feBlend mode="normal" in="SourceGraphic" in2="effect1_dropShadow_1_602" result="shape"/>
</filter>
</defs>
</svg>
