<svg width="48" height="48" viewBox="0 0 48 48" fill="none" xmlns="http://www.w3.org/2000/svg">
<rect width="48" height="48" rx="12" fill="#2D9CDB" fill-opacity="0.15"/>
<path d="M16.5809 28.3334H16.3825C15.7881 28.3334 15.3061 28.8179 15.3061 29.4167C15.3061 30.0155 15.7881 30.5 16.3825 30.5H16.5809C17.0267 31.7583 18.2103 32.6667 19.6118 32.6667C21.0132 32.6667 22.1969 31.7583 22.6427 30.5H25.1923C25.6381 31.7583 26.8217 32.6667 28.2231 32.6667C29.6307 32.6667 30.8182 31.75 31.2593 30.4831C32.5437 30.3965 33.6151 29.4924 33.898 28.2106L35.2377 22.1412C35.4301 21.2716 35.2225 20.3734 34.668 19.6783C34.1135 18.9822 33.2878 18.5834 32.4016 18.5834H30.9946C30.8866 18.1782 30.6925 17.7962 30.4175 17.4651C29.864 16.7986 29.0515 16.4167 28.1884 16.4167H17.4589C16.8645 16.4167 16.3825 16.9012 16.3825 17.5C16.3825 18.0988 16.8645 18.5834 17.4589 18.5834H28.1884C28.4943 18.5834 28.6815 18.7537 28.7661 18.8552C28.8502 18.9568 28.9831 19.1716 28.9295 19.4731L27.7089 26.219C26.5362 26.4098 25.582 27.2332 25.1922 28.3334H22.6427C22.1969 27.0751 21.0132 26.1667 19.6118 26.1667C18.2103 26.1667 17.0266 27.0751 16.5809 28.3334ZM32.9887 21.0335C33.0733 21.1393 33.2042 21.3626 33.1364 21.6715L31.7967 27.7409C31.734 28.024 31.5207 28.2298 31.2539 28.3004C30.9927 27.5903 30.4868 26.9908 29.827 26.6065L30.8868 20.75H32.4016C32.7159 20.75 32.9041 20.9278 32.9887 21.0335ZM28.2231 28.3334C28.2915 28.3334 28.3603 28.3386 28.4066 28.346C28.9238 28.4476 29.2996 28.8972 29.2996 29.4167C29.2996 30.0144 28.8165 30.5 28.2231 30.5C27.6297 30.5 27.1467 30.0144 27.1467 29.4167C27.1467 28.8189 27.6297 28.3334 28.2231 28.3334ZM19.6118 28.3334C20.2052 28.3334 20.6882 28.8189 20.6882 29.4167C20.6882 30.0144 20.2052 30.5 19.6118 30.5C19.0184 30.5 18.5354 30.0144 18.5354 29.4167C18.5354 28.8189 19.0184 28.3334 19.6118 28.3334Z" fill="#2D9CDB"/>
<path d="M15.3058 22.9167H19.6115C20.2059 22.9167 20.6879 22.4321 20.6879 21.8333C20.6879 21.2345 20.2059 20.75 19.6115 20.75H15.3058C14.7113 20.75 14.2294 21.2345 14.2294 21.8333C14.2294 22.4321 14.7113 22.9167 15.3058 22.9167Z" fill="#2D9CDB"/>
<path d="M13.1533 26.1667H16.3825C16.977 26.1667 17.4589 25.6821 17.4589 25.0833C17.4589 24.4845 16.977 24 16.3825 24H13.1533C12.5588 24 12.0768 24.4845 12.0768 25.0833C12.0768 25.6821 12.5588 26.1667 13.1533 26.1667Z" fill="#2D9CDB"/>
<path d="M14.2289 18.5834C14.8234 18.5834 15.3054 18.0983 15.3054 17.5C15.3054 16.9017 14.8234 16.4167 14.2289 16.4167C13.6345 16.4167 13.1525 16.9017 13.1525 17.5C13.1525 18.0983 13.6345 18.5834 14.2289 18.5834Z" fill="#2D9CDB"/>
<path d="M13.1533 30.5C13.7478 30.5 14.2297 30.015 14.2297 29.4167C14.2297 28.8183 13.7478 28.3333 13.1533 28.3333C12.5588 28.3333 12.0768 28.8183 12.0768 29.4167C12.0768 30.015 12.5588 30.5 13.1533 30.5Z" fill="#2D9CDB"/>
</svg>
