<svg width="20" height="21" viewBox="0 0 20 21" fill="none" xmlns="http://www.w3.org/2000/svg">
<path d="M2.50034 19.0782H5.83367C5.94335 19.0788 6.05206 19.0578 6.15359 19.0163C6.25513 18.9748 6.34747 18.9137 6.42534 18.8365L16.4253 8.8365C16.5034 8.75903 16.5654 8.66686 16.6077 8.56531C16.6501 8.46376 16.6718 8.35484 16.6718 8.24483C16.6718 8.13482 16.6501 8.0259 16.6077 7.92435C16.5654 7.8228 16.5034 7.73064 16.4253 7.65317L13.092 4.31983C13.0145 4.24173 12.9224 4.17973 12.8208 4.13742C12.7193 4.09512 12.6103 4.07333 12.5003 4.07333C12.3903 4.07333 12.2814 4.09512 12.1799 4.13742C12.0783 4.17973 11.9861 4.24173 11.9087 4.31983L1.90867 14.3198C1.83144 14.3977 1.77033 14.49 1.72886 14.5916C1.68739 14.6931 1.66637 14.8018 1.66701 14.9115V18.2448C1.66701 18.4658 1.7548 18.6778 1.91108 18.8341C2.06736 18.9904 2.27933 19.0782 2.50034 19.0782ZM3.33367 15.2532L12.5003 6.0865L14.6587 8.24483L5.49201 17.4115H3.33367V15.2532Z" fill="#464255"/>
<path d="M14.7585 2.65304C14.6808 2.57534 14.5885 2.5137 14.487 2.47165C14.3855 2.4296 14.2767 2.40796 14.1668 2.40796C13.9449 2.40796 13.7321 2.49612 13.5752 2.65304C13.4182 2.80996 13.3301 3.02278 13.3301 3.2447C13.3301 3.46662 13.4182 3.67945 13.5752 3.83637L16.9085 7.1697C16.986 7.24781 17.0781 7.30981 17.1797 7.35211C17.2812 7.39442 17.3901 7.4162 17.5002 7.4162C17.6102 7.4162 17.7191 7.39442 17.8206 7.35211C17.9222 7.30981 18.0143 7.24781 18.0918 7.1697C18.1699 7.09223 18.2319 7.00007 18.2742 6.89852C18.3165 6.79697 18.3383 6.68805 18.3383 6.57804C18.3383 6.46803 18.3165 6.35911 18.2742 6.25756C18.2319 6.15601 18.1699 6.06384 18.0918 5.98637L14.7585 2.65304Z" fill="#464255"/>
</svg>
