<svg width="20" height="21" viewBox="0 0 20 21" fill="none" xmlns="http://www.w3.org/2000/svg">
<path d="M16.8749 7.61969H16.0031L16.1093 6.55588C16.1353 6.29525 16.1064 6.03206 16.0245 5.78327C15.9426 5.53448 15.8095 5.30562 15.6337 5.11143C15.4579 4.91724 15.2434 4.76203 15.004 4.65581C14.7646 4.54958 14.5056 4.4947 14.2436 4.49469H4.50612C4.24414 4.49471 3.98507 4.54962 3.74561 4.65589C3.50615 4.76215 3.29161 4.91741 3.11582 5.11165C2.94003 5.3059 2.80689 5.53482 2.72498 5.78366C2.64307 6.03251 2.6142 6.29576 2.64025 6.55644L3.49618 16.1166C3.51297 16.2665 3.48006 15.9554 3.5998 16.5554H1.73043C1.56467 16.5554 1.4057 16.6212 1.28849 16.7384C1.17128 16.8556 1.10543 17.0146 1.10543 17.1804C1.10543 17.3461 1.17128 17.5051 1.28849 17.6223C1.4057 17.7395 1.56467 17.8054 1.73043 17.8054L16.9999 17.9947C17.1656 17.9947 17.3246 17.9288 17.4418 17.8116C17.559 17.6944 17.6249 17.5354 17.6249 17.3697C17.6249 17.2039 17.559 17.045 17.4418 16.9277C17.3246 16.8105 17.1656 16.7447 16.9999 16.7447H15.1306C15.1826 16.6033 15.2173 16.4561 15.2341 16.3064L15.4404 13.2447H16.8749C17.372 13.2441 17.8486 13.0464 18.2001 12.6949C18.5516 12.3434 18.7493 11.8668 18.7499 11.3697V9.49469C18.7493 8.99758 18.5516 8.52098 18.2001 8.16947C17.8486 7.81796 17.372 7.62024 16.8749 7.61969ZM5.66116 16.5554C5.50612 16.5559 5.35648 16.4985 5.24154 16.3944C5.12661 16.2904 5.05466 16.1472 5.03978 15.9929L4.13771 6.58451C4.12901 6.49758 4.13862 6.40979 4.16591 6.32679C4.1932 6.2438 4.23757 6.16744 4.29617 6.10264C4.35476 6.03783 4.42629 5.98602 4.50612 5.95054C4.58596 5.91506 4.67235 5.8967 4.75971 5.89664L14.0203 5.95054C14.1076 5.9506 14.194 5.96895 14.2738 6.0044C14.3536 6.03986 14.4251 6.09163 14.4837 6.15639C14.5423 6.22116 14.5867 6.29747 14.614 6.38043C14.6413 6.46338 14.6509 6.55114 14.6423 6.63804L14.0203 15.9935C14.0053 16.1477 13.9332 16.2908 13.8183 16.3948C13.7033 16.4987 13.5536 16.556 13.3987 16.5554H5.66116ZM17.4999 11.3697C17.4998 11.5354 17.4339 11.6943 17.3167 11.8115C17.1995 11.9287 17.0406 11.9946 16.8749 11.9947H15.5654L15.8779 8.86969H16.8749C17.0406 8.86979 17.1995 8.93567 17.3167 9.05286C17.4339 9.17005 17.4998 9.32896 17.4999 9.49469V11.3697Z" fill="#464255"/>
</svg>
