<svg width="28" height="28" viewBox="0 0 28 28" fill="none" xmlns="http://www.w3.org/2000/svg">
<path d="M23.625 6.12504H22.75V2.62505C22.75 2.47267 22.7102 2.32293 22.6345 2.19066C22.5589 2.05839 22.45 1.94817 22.3186 1.87091C22.1873 1.79366 22.0381 1.75203 21.8857 1.75017C21.7333 1.74831 21.5831 1.78627 21.4499 1.8603L14 5.99913L6.55007 1.8603C6.41688 1.78627 6.26667 1.74831 6.11431 1.75017C5.96194 1.75203 5.8127 1.79366 5.68136 1.87091C5.55002 1.94817 5.44113 2.05839 5.36547 2.19066C5.28981 2.32293 5.25001 2.47267 5.25 2.62505V6.12504H4.375C3.67904 6.12581 3.01181 6.40262 2.51969 6.89473C2.02757 7.38685 1.75076 8.05409 1.75 8.75004V11.375C1.75076 12.071 2.02757 12.7382 2.51969 13.2304C3.01181 13.7225 3.67904 13.9993 4.375 14H5.25V23.625C5.25076 24.321 5.52757 24.9882 6.01969 25.4804C6.51181 25.9725 7.17904 26.2493 7.875 26.25H20.125C20.821 26.2493 21.4882 25.9725 21.9803 25.4804C22.4724 24.9882 22.7492 24.321 22.75 23.625V14H23.625C24.321 13.9993 24.9882 13.7225 25.4803 13.2304C25.9724 12.7382 26.2492 12.071 26.25 11.375V8.75004C26.2492 8.05409 25.9724 7.38685 25.4803 6.89473C24.9882 6.40262 24.321 6.12581 23.625 6.12504ZM21 6.12504H17.3769L21 4.11254V6.12504ZM7 4.11254L10.6231 6.12504H7V4.11254ZM7 23.625V14H13.125V24.5H7.875C7.64303 24.4997 7.42064 24.4075 7.25661 24.2434C7.09258 24.0794 7.0003 23.857 7 23.625ZM21 23.625C20.9997 23.857 20.9074 24.0794 20.7434 24.2434C20.5794 24.4075 20.357 24.4997 20.125 24.5H14.875V14H21V23.625ZM24.5 11.375C24.4997 11.607 24.4074 11.8294 24.2434 11.9934C24.0794 12.1575 23.857 12.2497 23.625 12.25H4.375C4.14303 12.2497 3.92064 12.1575 3.75661 11.9934C3.59258 11.8294 3.5003 11.607 3.5 11.375V8.75004C3.5003 8.51807 3.59258 8.29569 3.75661 8.13166C3.92064 7.96763 4.14303 7.87534 4.375 7.87504H23.625C23.857 7.87534 24.0794 7.96763 24.2434 8.13166C24.4074 8.29569 24.4997 8.51807 24.5 8.75004V11.375Z" fill="#5E6C93"/>
</svg>
