<svg width="167" height="49" viewBox="0 0 167 49" fill="none" xmlns="http://www.w3.org/2000/svg">
<path d="M13.168 36.1737C10.704 36.1737 8.496 35.7737 6.544 34.9737C4.592 34.1737 3.024 32.9897 1.84 31.4217C0.688 29.8537 0.0800002 27.9657 0.0160002 25.7577H8.752C8.88 27.0057 9.312 27.9657 10.048 28.6377C10.784 29.2777 11.744 29.5977 12.928 29.5977C14.144 29.5977 15.104 29.3257 15.808 28.7817C16.512 28.2057 16.864 27.4217 16.864 26.4297C16.864 25.5977 16.576 24.9097 16 24.3657C15.456 23.8217 14.768 23.3737 13.936 23.0217C13.136 22.6697 11.984 22.2697 10.48 21.8217C8.304 21.1497 6.528 20.4777 5.152 19.8057C3.776 19.1337 2.592 18.1417 1.6 16.8297C0.608 15.5177 0.112 13.8057 0.112 11.6937C0.112 8.55771 1.248 6.10971 3.52 4.34971C5.792 2.55771 8.752 1.66171 12.4 1.66171C16.112 1.66171 19.104 2.55771 21.376 4.34971C23.648 6.10971 24.864 8.57371 25.024 11.7417H16.144C16.08 10.6537 15.68 9.80571 14.944 9.19771C14.208 8.55771 13.264 8.23771 12.112 8.23771C11.12 8.23771 10.32 8.50971 9.712 9.05371C9.104 9.56571 8.8 10.3177 8.8 11.3097C8.8 12.3977 9.312 13.2457 10.336 13.8537C11.36 14.4617 12.96 15.1177 15.136 15.8217C17.312 16.5577 19.072 17.2617 20.416 17.9337C21.792 18.6057 22.976 19.5817 23.968 20.8617C24.96 22.1417 25.456 23.7897 25.456 25.8057C25.456 27.7257 24.96 29.4697 23.968 31.0377C23.008 32.6057 21.6 33.8537 19.744 34.7817C17.888 35.7097 15.696 36.1737 13.168 36.1737ZM55.7552 22.0137C55.7552 22.7817 55.7073 23.5817 55.6113 24.4137H37.0353C37.1633 26.0777 37.6913 27.3577 38.6193 28.2537C39.5793 29.1177 40.7473 29.5497 42.1233 29.5497C44.1713 29.5497 45.5953 28.6857 46.3953 26.9577H55.1313C54.6833 28.7177 53.8673 30.3017 52.6833 31.7097C51.5313 33.1177 50.0753 34.2217 48.3153 35.0217C46.5553 35.8217 44.5873 36.2217 42.4113 36.2217C39.7873 36.2217 37.4513 35.6617 35.4033 34.5417C33.3553 33.4217 31.7553 31.8217 30.6033 29.7417C29.4513 27.6617 28.8753 25.2297 28.8753 22.4457C28.8753 19.6617 29.4353 17.2297 30.5553 15.1497C31.7073 13.0697 33.3073 11.4697 35.3553 10.3497C37.4033 9.22971 39.7553 8.66971 42.4113 8.66971C45.0033 8.66971 47.3073 9.21371 49.3233 10.3017C51.3393 11.3897 52.9073 12.9417 54.0273 14.9577C55.1793 16.9737 55.7552 19.3257 55.7552 22.0137ZM47.3553 19.8537C47.3553 18.4457 46.8753 17.3257 45.9153 16.4937C44.9553 15.6617 43.7553 15.2457 42.3153 15.2457C40.9393 15.2457 39.7713 15.6457 38.8113 16.4457C37.8833 17.2457 37.3073 18.3817 37.0833 19.8537H47.3553ZM58.4534 22.3977C58.4534 19.6457 58.9654 17.2297 59.9894 15.1497C61.0454 13.0697 62.4694 11.4697 64.2614 10.3497C66.0534 9.22971 68.0534 8.66971 70.2614 8.66971C72.0214 8.66971 73.6214 9.03771 75.0614 9.77371C76.5334 10.5097 77.6854 11.5017 78.5174 12.7497V0.317707H86.7254V35.8377H78.5174V31.9977C77.7494 33.2777 76.6454 34.3017 75.2054 35.0697C73.7974 35.8377 72.1494 36.2217 70.2614 36.2217C68.0534 36.2217 66.0534 35.6617 64.2614 34.5417C62.4694 33.3897 61.0454 31.7737 59.9894 29.6937C58.9654 27.5817 58.4534 25.1497 58.4534 22.3977ZM78.5174 22.4457C78.5174 20.3977 77.9414 18.7817 76.7894 17.5977C75.6694 16.4137 74.2934 15.8217 72.6614 15.8217C71.0294 15.8217 69.6374 16.4137 68.4854 17.5977C67.3654 18.7497 66.8054 20.3497 66.8054 22.3977C66.8054 24.4457 67.3654 26.0777 68.4854 27.2937C69.6374 28.4777 71.0294 29.0697 72.6614 29.0697C74.2934 29.0697 75.6694 28.4777 76.7894 27.2937C77.9414 26.1097 78.5174 24.4937 78.5174 22.4457ZM91.0315 22.3977C91.0315 19.6457 91.5435 17.2297 92.5675 15.1497C93.6235 13.0697 95.0475 11.4697 96.8395 10.3497C98.6315 9.22971 100.632 8.66971 102.84 8.66971C104.728 8.66971 106.376 9.05371 107.784 9.8217C109.224 10.5897 110.328 11.5977 111.096 12.8457V9.05371H119.304V35.8377H111.096V32.0457C110.296 33.2937 109.176 34.3017 107.736 35.0697C106.328 35.8377 104.68 36.2217 102.792 36.2217C100.616 36.2217 98.6315 35.6617 96.8395 34.5417C95.0475 33.3897 93.6235 31.7737 92.5675 29.6937C91.5435 27.5817 91.0315 25.1497 91.0315 22.3977ZM111.096 22.4457C111.096 20.3977 110.52 18.7817 109.368 17.5977C108.248 16.4137 106.872 15.8217 105.24 15.8217C103.608 15.8217 102.216 16.4137 101.064 17.5977C99.9435 18.7497 99.3835 20.3497 99.3835 22.3977C99.3835 24.4457 99.9435 26.0777 101.064 27.2937C102.216 28.4777 103.608 29.0697 105.24 29.0697C106.872 29.0697 108.248 28.4777 109.368 27.2937C110.52 26.1097 111.096 24.4937 111.096 22.4457ZM133.45 12.8457C134.25 11.5977 135.354 10.5897 136.762 9.8217C138.17 9.05371 139.818 8.66971 141.706 8.66971C143.914 8.66971 145.914 9.22971 147.706 10.3497C149.498 11.4697 150.906 13.0697 151.93 15.1497C152.986 17.2297 153.514 19.6457 153.514 22.3977C153.514 25.1497 152.986 27.5817 151.93 29.6937C150.906 31.7737 149.498 33.3897 147.706 34.5417C145.914 35.6617 143.914 36.2217 141.706 36.2217C139.85 36.2217 138.202 35.8377 136.762 35.0697C135.354 34.3017 134.25 33.3097 133.45 32.0937V48.6057H125.242V9.05371H133.45V12.8457ZM145.162 22.3977C145.162 20.3497 144.586 18.7497 143.434 17.5977C142.314 16.4137 140.922 15.8217 139.258 15.8217C137.626 15.8217 136.234 16.4137 135.082 17.5977C133.962 18.7817 133.402 20.3977 133.402 22.4457C133.402 24.4937 133.962 26.1097 135.082 27.2937C136.234 28.4777 137.626 29.0697 139.258 29.0697C140.89 29.0697 142.282 28.4777 143.434 27.2937C144.586 26.0777 145.162 24.4457 145.162 22.3977Z" fill="#333333"/>
<path d="M161.66 36.2217C160.22 36.2217 159.036 35.8057 158.108 34.9737C157.212 34.1097 156.764 33.0537 156.764 31.8057C156.764 30.5257 157.212 29.4537 158.108 28.5897C159.036 27.7257 160.22 27.2937 161.66 27.2937C163.068 27.2937 164.22 27.7257 165.116 28.5897C166.044 29.4537 166.508 30.5257 166.508 31.8057C166.508 33.0537 166.044 34.1097 165.116 34.9737C164.22 35.8057 163.068 36.2217 161.66 36.2217Z" fill="#00B074"/>
</svg>
