<svg width="188" height="53" viewBox="0 0 188 53" fill="none" xmlns="http://www.w3.org/2000/svg">
<path d="M0.926316 51V0.329322H21.8632C22.3558 0.329322 22.9892 0.352781 23.7633 0.399697C24.5374 0.423157 25.2529 0.493534 25.9098 0.610827C28.8421 1.05654 31.2583 2.03007 33.1585 3.53143C35.0821 5.03278 36.5014 6.93293 37.4162 9.23188C38.3546 11.5074 38.8238 14.0409 38.8238 16.8325C38.8238 19.6006 38.3546 22.1341 37.4162 24.4331C36.4779 26.7086 35.0469 28.597 33.1233 30.0983C31.2232 31.5997 28.8186 32.5732 25.9098 33.0189C25.2529 33.1128 24.5257 33.1832 23.7281 33.2301C22.954 33.277 22.3323 33.3005 21.8632 33.3005H9.40662V51H0.926316ZM9.40662 25.3832H21.5113C21.9805 25.3832 22.5083 25.3597 23.0947 25.3128C23.6812 25.2659 24.2208 25.172 24.7134 25.0313C26.1209 24.6794 27.2235 24.0577 28.0211 23.1663C28.8421 22.2749 29.4168 21.2662 29.7453 20.1401C30.0971 19.0141 30.2731 17.9116 30.2731 16.8325C30.2731 15.7534 30.0971 14.6508 29.7453 13.5248C29.4168 12.3753 28.8421 11.3549 28.0211 10.4635C27.2235 9.57203 26.1209 8.95037 24.7134 8.5985C24.2208 8.45774 23.6812 8.37564 23.0947 8.35218C22.5083 8.30526 21.9805 8.2818 21.5113 8.2818H9.40662V25.3832ZM55.538 52.0556C52.7934 52.0556 50.471 51.5395 48.5708 50.5074C46.6707 49.4517 45.228 48.0559 44.2427 46.32C43.2809 44.5841 42.8 42.6722 42.8 40.5844C42.8 38.7546 43.105 37.1125 43.7149 35.658C44.3248 34.1802 45.2632 32.9134 46.5299 31.8577C47.7967 30.7786 49.4388 29.8989 51.4562 29.2186C52.9811 28.726 54.7639 28.2803 56.8048 27.8815C58.8692 27.4827 61.0977 27.1191 63.4905 26.7907C65.9068 26.4388 68.4286 26.0635 71.0559 25.6647L68.0298 27.3889C68.0532 24.7615 67.4668 22.8262 66.2704 21.5829C65.074 20.3395 63.0565 19.7179 60.218 19.7179C58.5056 19.7179 56.8517 20.1167 55.2565 20.9143C53.6614 21.7119 52.5471 23.0842 51.9137 25.0313L44.1723 22.6033C45.1107 19.3895 46.8935 16.809 49.5209 14.862C52.1717 12.9149 55.7374 11.9414 60.218 11.9414C63.5961 11.9414 66.5636 12.4926 69.1206 13.5952C71.7011 14.6977 73.6129 16.5041 74.8562 19.0141C75.5365 20.3513 75.9471 21.7236 76.0878 23.1311C76.2286 24.5152 76.2989 26.0283 76.2989 27.6704V51H68.8743V42.766L70.1059 44.1032C68.3934 46.8478 66.3877 48.8653 64.0887 50.1555C61.8132 51.4223 58.963 52.0556 55.538 52.0556ZM57.2271 45.2995C59.1507 45.2995 60.7928 44.9594 62.1534 44.2791C63.514 43.5988 64.5931 42.766 65.3907 41.7808C66.2117 40.7955 66.763 39.8689 67.0445 39.0009C67.4902 37.9218 67.7365 36.6902 67.7835 35.3062C67.8538 33.8986 67.889 32.7609 67.889 31.8929L70.4929 32.6671C67.9359 33.0659 65.7426 33.4177 63.9128 33.7227C62.083 34.0277 60.5113 34.3209 59.1976 34.6024C57.8839 34.8605 56.7227 35.1537 55.714 35.4821C54.7287 35.834 53.8959 36.2445 53.2156 36.7137C52.5353 37.1829 52.0075 37.7224 51.6322 38.3323C51.2803 38.9423 51.1044 39.6577 51.1044 40.4788C51.1044 41.4171 51.3389 42.2499 51.8081 42.9771C52.2773 43.6809 52.9576 44.2439 53.849 44.6662C54.7639 45.0884 55.8899 45.2995 57.2271 45.2995ZM100.133 52.0556C95.4416 52.0556 91.6295 51 88.6972 48.8887C85.7649 46.7774 83.982 43.8099 83.3486 39.9862L92.0049 38.649C92.4506 40.5257 93.4359 42.0036 94.9607 43.0827C96.4855 44.1618 98.4091 44.7014 100.731 44.7014C102.772 44.7014 104.344 44.3026 105.447 43.505C106.573 42.6839 107.136 41.5696 107.136 40.1621C107.136 39.2941 106.925 38.6021 106.502 38.086C106.104 37.5465 105.212 37.0304 103.828 36.5377C102.444 36.0451 100.321 35.4235 97.459 34.6728C94.2686 33.8283 91.7351 32.9251 89.8584 31.9633C87.9817 30.978 86.6328 29.8168 85.8118 28.4797C84.9907 27.1426 84.5802 25.5239 84.5802 23.6238C84.5802 21.2544 85.2019 19.1901 86.4452 17.4307C87.6885 15.6713 89.4244 14.3224 91.653 13.3841C93.8816 12.4223 96.5089 11.9414 99.5351 11.9414C102.491 11.9414 105.107 12.3988 107.382 13.3137C109.681 14.2286 111.534 15.5305 112.942 17.2195C114.349 18.9086 115.217 20.8908 115.546 23.1663L106.889 24.7146C106.678 23.0959 105.939 21.8174 104.673 20.8791C103.429 19.9408 101.764 19.4129 99.6759 19.2956C97.6819 19.1783 96.075 19.4833 94.8551 20.2105C93.6353 20.9143 93.0253 21.9113 93.0253 23.2015C93.0253 23.9287 93.2716 24.5504 93.7643 25.0665C94.2569 25.5826 95.2422 26.0986 96.7201 26.6147C98.2214 27.1308 100.45 27.7642 103.406 28.5149C106.432 29.289 108.848 30.1805 110.655 31.1892C112.484 32.1744 113.798 33.3591 114.596 34.7432C115.417 36.1272 115.827 37.8045 115.827 39.775C115.827 43.5988 114.431 46.6015 111.64 48.7832C108.872 50.9648 105.036 52.0556 100.133 52.0556ZM145.808 51C143.298 51.4692 140.835 51.6686 138.419 51.5982C136.026 51.5513 133.88 51.1173 131.98 50.2962C130.079 49.4517 128.637 48.1263 127.651 46.32C126.783 44.6779 126.326 43.0006 126.279 41.2881C126.232 39.5756 126.209 37.6403 126.209 35.4821V2.4406H134.654V34.9895C134.654 36.5143 134.666 37.8514 134.689 39.0009C134.736 40.1504 134.982 41.0887 135.428 41.8159C136.272 43.2235 137.621 44.0093 139.475 44.1735C141.328 44.3377 143.439 44.2439 145.808 43.892V51ZM119.312 19.6475V12.997H145.808V19.6475H119.312ZM168.841 52.0556C165.04 52.0556 161.721 51.1994 158.882 49.4869C156.044 47.7744 153.839 45.4168 152.267 42.4141C150.719 39.388 149.945 35.9161 149.945 31.9985C149.945 28.0105 150.742 24.5152 152.337 21.5125C153.933 18.5098 156.149 16.1639 158.988 14.4749C161.826 12.7859 165.111 11.9414 168.841 11.9414C172.664 11.9414 175.995 12.7976 178.834 14.5101C181.672 16.2226 183.878 18.5919 185.449 21.618C187.021 24.6208 187.807 28.0809 187.807 31.9985C187.807 35.9395 187.009 39.4232 185.414 42.4493C183.842 45.452 181.637 47.8096 178.799 49.5221C175.96 51.2111 172.641 52.0556 168.841 52.0556ZM168.841 44.1032C172.219 44.1032 174.729 42.9771 176.371 40.7251C178.013 38.4731 178.834 35.5642 178.834 31.9985C178.834 28.3155 178.001 25.3832 176.336 23.2015C174.67 20.9964 172.172 19.8938 168.841 19.8938C166.565 19.8938 164.688 20.4099 163.21 21.4421C161.756 22.4508 160.677 23.8701 159.973 25.6998C159.269 27.5062 158.918 29.6057 158.918 31.9985C158.918 35.6815 159.75 38.6256 161.416 40.8307C163.105 43.0123 165.58 44.1032 168.841 44.1032Z" fill="#FF743D"/>
</svg>
