<svg width="20" height="21" viewBox="0 0 20 21" fill="none" xmlns="http://www.w3.org/2000/svg">
<path d="M17.5003 4.91137H2.50033C2.0281 4.91137 1.66699 4.55026 1.66699 4.07804C1.66699 3.60582 2.0281 3.24471 2.50033 3.24471H17.5003C17.9725 3.24471 18.3337 3.60582 18.3337 4.07804C18.3337 4.55026 17.9725 4.91137 17.5003 4.91137Z" fill="#464255"/>
<path d="M12.5003 9.35578H2.50033C2.0281 9.35578 1.66699 8.99466 1.66699 8.52244C1.66699 8.05022 2.0281 7.68911 2.50033 7.68911H12.5003C12.9725 7.68911 13.3337 8.05022 13.3337 8.52244C13.3337 8.99466 12.9725 9.35578 12.5003 9.35578Z" fill="#464255"/>
<path d="M17.5003 13.8002H2.50033C2.0281 13.8002 1.66699 13.4391 1.66699 12.9669C1.66699 12.4946 2.0281 12.1335 2.50033 12.1335H17.5003C17.9725 12.1335 18.3337 12.4946 18.3337 12.9669C18.3337 13.4391 17.9725 13.8002 17.5003 13.8002Z" fill="#464255"/>
<path d="M12.5003 18.2446H2.50033C2.0281 18.2446 1.66699 17.8835 1.66699 17.4113C1.66699 16.9391 2.0281 16.5779 2.50033 16.5779H12.5003C12.9725 16.5779 13.3337 16.9391 13.3337 17.4113C13.3337 17.8835 12.9725 18.2446 12.5003 18.2446Z" fill="#464255"/>
</svg>
