<svg width="48" height="48" viewBox="0 0 48 48" fill="none" xmlns="http://www.w3.org/2000/svg">
<rect x="-3.05176e-05" width="48" height="48" rx="12" fill="#2D9CDB" fill-opacity="0.15"/>
<path d="M20.1616 20.1617C20.2698 20.0527 20.3553 19.9234 20.4134 19.7812C20.4714 19.6391 20.5009 19.4869 20.5 19.3333V14.6667C20.5 14.3572 20.3771 14.0605 20.1583 13.8417C19.9395 13.6229 19.6427 13.5 19.3333 13.5H14.6666C14.3572 13.5 14.0605 13.6229 13.8417 13.8417C13.6229 14.0605 13.5 14.3572 13.5 14.6667C13.5 19.9268 15.5895 24.9715 19.309 28.691C23.0285 32.4104 28.0732 34.5 33.3333 34.5C33.6427 34.5 33.9395 34.3771 34.1583 34.1583C34.3771 33.9395 34.5 33.6428 34.5 33.3333V28.6667C34.5 28.3572 34.3771 28.0605 34.1583 27.8417C33.9395 27.6229 33.6427 27.5 33.3333 27.5H28.6666C28.5131 27.4991 28.3609 27.5285 28.2187 27.5866C28.0766 27.6447 27.9473 27.7302 27.8383 27.8383L25.505 30.1717L25.4233 30.2767C22.1098 28.585 19.415 25.8902 17.7233 22.5767L17.8283 22.495L20.1616 20.1617ZM29.145 29.8333H32.1666V32.1667C30.6567 32.064 29.1665 31.766 27.7333 31.28L29.145 29.8333ZM16.755 20.2667C16.257 18.835 15.9472 17.3448 15.8333 15.8333H18.1666V18.855L16.755 20.2667Z" fill="#2D9CDB"/>
</svg>
