<svg width="85" height="85" viewBox="0 0 85 85" fill="none" xmlns="http://www.w3.org/2000/svg">
<ellipse cx="42.1554" cy="42.5" rx="42.1554" ry="42.5" fill="#00B074" fill-opacity="0.15"/>
<path d="M18.6519 64.2747C21.8187 64.2747 24.4063 61.6627 24.4063 58.466V21.041H58.0061V58.466C58.0061 61.6627 55.4185 64.2747 52.2516 64.2747" fill="#00B074"/>
<path d="M46.4972 58.4659V54.0606H12.8975V58.4659C12.8975 61.6626 15.485 64.2745 18.6519 64.2745H52.2517C49.0848 64.2745 46.4972 61.6626 46.4972 58.4659Z" fill="#0A5239"/>
<path d="M34.718 28.4868H30.4312V30.3581H34.718V28.4868Z" fill="#F7C604"/>
<path d="M51.2089 28.4868H38.0393V30.3581H51.2089V28.4868Z" fill="#F3F2F7"/>
<path d="M34.718 35.1142H30.4312V36.9854H34.718V35.1142Z" fill="#F7C604"/>
<path d="M51.2089 35.1142H38.0393V36.9854H51.2089V35.1142Z" fill="#F3F2F7"/>
<path d="M34.718 41.7417H30.4312V43.6129H34.718V41.7417Z" fill="#F7C604"/>
<path d="M51.2089 41.7417H38.0393V43.6129H51.2089V41.7417Z" fill="#F3F2F7"/>
<path d="M34.718 48.369H30.4312V50.2403H34.718V48.369Z" fill="#F7C604"/>
<path d="M51.2089 48.369H38.0393V50.2403H51.2089V48.369Z" fill="#F3F2F7"/>
<path opacity="0.1" d="M58.0062 48.681V26.4209C57.5427 26.3429 57.0406 26.3039 56.5386 26.3039C50.3979 26.3039 45.4159 31.3329 45.4159 37.5314C45.4159 43.73 50.3979 48.7589 56.5386 48.7589C57.0406 48.7979 57.5427 48.7589 58.0062 48.681Z" fill="#0C1E5B"/>
<path d="M60.4399 46.537C66.5829 46.537 71.5627 41.5103 71.5627 35.3094C71.5627 29.1086 66.5829 24.0818 60.4399 24.0818C54.297 24.0818 49.3171 29.1086 49.3171 35.3094C49.3171 41.5103 54.297 46.537 60.4399 46.537Z" fill="#FF5B5B"/>
<path d="M64.8063 30.7308L55.7267 39.8846M55.7267 30.7308L64.8063 39.8846" stroke="white" stroke-width="4"/>
<path d="M64.8063 30.7308L55.7267 39.8846M55.7267 30.7308L64.8063 39.8846" stroke="white" stroke-width="4"/>
</svg>
