<svg width="85" height="85" viewBox="0 0 85 85" fill="none" xmlns="http://www.w3.org/2000/svg">
<ellipse cx="42.1554" cy="42.5" rx="42.1554" ry="42.5" fill="#00B074" fill-opacity="0.15"/>
<path d="M41.7137 23.9521C41.12 23.9521 40.6535 23.4818 40.6535 22.8832V20.1896C40.6535 17.2822 38.321 14.9306 35.4796 14.9306C34.0801 14.9306 32.8078 15.4865 31.79 16.4698C30.7722 17.4532 30.2633 18.7786 30.2633 20.1896V22.8832C30.2633 23.4818 29.7968 23.9521 29.203 23.9521C28.6093 23.9521 28.1428 23.4818 28.1428 22.8832V20.1896C28.1428 18.2228 28.9062 16.3843 30.2633 14.9734C31.6628 13.5624 33.4863 12.7928 35.4372 12.7928C39.466 12.7928 42.7315 16.085 42.7315 20.1468V22.8404C42.7739 23.4818 42.3074 23.9521 41.7137 23.9521Z" fill="#FFD497"/>
<path d="M58.3802 59.9952H27.464L22.3325 20.0614H56.2173L58.3802 59.9952Z" fill="#00B074"/>
<path d="M27.464 59.9952L20.1272 58.7125L12.748 59.9952L14.9533 20.0614H25.2587L27.464 59.9952Z" fill="#0A5239"/>
<path d="M40.9076 33.8286C36.8788 33.8286 33.6133 30.5365 33.6133 26.4747V23.7811C33.6133 23.1825 34.0798 22.7122 34.6735 22.7122C35.2672 22.7122 35.7337 23.1825 35.7337 23.7811V26.4747C35.7337 29.3821 38.0662 31.6909 40.9076 31.6909C43.749 31.6909 46.1239 29.3393 46.1239 26.4319V23.7383C46.1239 23.1397 46.5904 22.6694 47.1842 22.6694C47.7779 22.6694 48.2444 23.1397 48.2444 23.7383V26.4319C48.2444 30.5365 44.9789 33.8286 40.9076 33.8286Z" fill="white"/>
<path opacity="0.1" d="M42.8162 54.5224C42.8162 56.4892 43.3251 58.3704 44.2157 59.9951H58.4227L57.5321 43.5769C56.4719 43.2349 55.3692 43.0639 54.2242 43.0639C47.9052 43.0639 42.8162 48.1946 42.8162 54.5224Z" fill="#0C1E5B"/>
<path d="M60.119 65.9809C66.3961 65.9809 71.4846 60.8508 71.4846 54.5224C71.4846 48.194 66.3961 43.0639 60.119 43.0639C53.842 43.0639 48.7534 48.194 48.7534 54.5224C48.7534 60.8508 53.842 65.9809 60.119 65.9809Z" fill="#FF6966"/>
<path d="M58.9315 58.9691C58.5922 58.9691 58.2953 58.8409 58.0409 58.5843L54.4361 54.9501C53.9272 54.437 53.9272 53.6247 54.4361 53.1544C54.945 52.6413 55.7508 52.6413 56.2173 53.1544L58.9315 55.8907L64.0206 50.76C64.5295 50.247 65.3353 50.247 65.8018 50.76C66.3107 51.2731 66.3107 52.0855 65.8018 52.5558L59.8221 58.5843C59.5676 58.8409 59.2284 58.9691 58.9315 58.9691Z" fill="white"/>
</svg>
